<?xml version="1.0" encoding="iso-8859-1"?>
<!-- Uploaded to: SVG Repo, www.svgrepo.com, Generator: SVG Repo Mixer Tools -->
<svg fill="#000000" height="800px" width="800px" version="1.1" id="Layer_1" xmlns="http://www.w3.org/2000/svg" xmlns:xlink="http://www.w3.org/1999/xlink" 
	 viewBox="0 0 512 512" xml:space="preserve">
<g>
	<g>
		<g>
			<path d="M21.333,53.333h469.333C502.449,53.333,512,43.782,512,32c0-11.782-9.551-21.333-21.333-21.333H21.333
				C9.551,10.667,0,20.218,0,32C0,43.782,9.551,53.333,21.333,53.333z"/>
			<path d="M490.667,458.667H21.333C9.551,458.667,0,468.218,0,480s9.551,21.333,21.333,21.333h469.333
				c11.782,0,21.333-9.551,21.333-21.333S502.449,458.667,490.667,458.667z"/>
			<path d="M490.667,309.333H21.333C9.551,309.333,0,318.885,0,330.667C0,342.449,9.551,352,21.333,352h469.333
				c11.782,0,21.333-9.551,21.333-21.333C512,318.885,502.449,309.333,490.667,309.333z"/>
			<path d="M490.667,160H21.333C9.551,160,0,169.551,0,181.333c0,11.782,9.551,21.333,21.333,21.333h469.333
				c11.782,0,21.333-9.551,21.333-21.333C512,169.551,502.449,160,490.667,160z"/>
		</g>
	</g>
</g>
</svg>